<?xml version="1.0" encoding="utf-8"?>
<!-- Generator: Adobe Illustrator 25.0.0, SVG Export Plug-In . SVG Version: 6.00 Build 0)  -->
<svg version="1.1" id="SVL" xmlns="http://www.w3.org/2000/svg" xmlns:xlink="http://www.w3.org/1999/xlink" x="0px" y="0px"
	 viewBox="0 0 85.8 104" enable-background="new 0 0 85.8 104" xml:space="preserve">
<g id="SVL-Bottom">
	<path fill="#E03776" d="M46.8,71.5l-35,14c0,0.4,0.6,0.8,1,1c0.6,0.3,24,10,24,10c1,0.4,1.1,0.4,2,0l24-10c1-0.4,1.6-1,2-2l9-20
		L46.8,71.5z M61.8,82.5l-24,10l-16-6l26-11l19-5L61.8,82.5z"/>
	<path fill="#EF6286" d="M74.8,61.5c0.4-1,0.4-3,0-4l-9-23l-1-1l9,31L74.8,61.5z"/>
	<path fill="#EE4D6E" d="M32.8,64.5l-20,19c-1,1-1,1.8-1,2l35-14L32.8,64.5z M27.8,74.5l5-5l4,2L27.8,74.5z"/>
	<path fill="#ED3866" d="M46.8,71.5l27-7l-9-31c-0.4-0.3-0.6-0.4-1,0l-31,31L46.8,71.5z M62.8,40.5l6,21l-22,6l-8-4L62.8,40.5z"/>
</g>
<g id="SVL-Top">
	<path fill="#EF5D6E" d="M72.8,18.5c0-0.4-1-1-1-1l-22-10c-0.5-0.2-2,0-2,0l5,20L72.8,18.5z M63.8,18.5l-8,4l-3-9L63.8,18.5z"/>
	<path fill="#EE426C" d="M52.8,27.5l-5-20c0,0-2.5,0.8-3,1l-22.6,8.9c-0.7,0.3-1,0.5-1.4,1.1l-5,22C15.8,40.5,52.7,27.5,52.8,27.5z
		 M23.8,20.5l21-8l3,13l-27,9L23.8,20.5z"/>
	<path fill="#F18386" d="M20.8,18.5c-0.2,0.2-0.9,1.7-1,2l-9,21c-0.2,0.4-1,2.5-1,3l6-4L20.8,18.5z"/>
	<path fill="#EF5D6E" d="M52.8,27.5l-37,13c0,0-4.8,3.2-6,4c0,0.6-0.3,1.4,0,2l10,23c0.2,0.5,0.6,1.1,1,1L52.8,27.5z M20.8,64.5
		l-7-18l3-2l25-9L20.8,64.5z"/>
	<path fill="#E03776" d="M71.8,20.5c1-1,1-2,1-2l-20,9l-32,43c0.2,0,0.7,0,0.8-0.1C21.6,70.3,65.4,26.8,71.8,20.5z"/>
</g>
</svg>
